<svg xmlns="http://www.w3.org/2000/svg" width="114" height="114" viewBox="0 0 114 114"><path fill="#FFF" d="M35.5 26.333v61h4v-7h7v7h23v-61h-34zm11 47h-7v-8h7v8zm0-23h-7v-7h7v7zm0-11h-7v-8h7v8zm9 34h-7v-8h7v8zm0-11h-7v-8h7v8zm0-12h-7v-7h7v7zm0-11h-7v-8h7v8zm10 34h-7v-8h7v8zm0-11h-7v-8h7v8zm0-23h-7v-8h7v8z"/><path opacity=".4" fill="#FFF" d="M77.5 81.716L69.5 88V27l8-7.207"/><path fill="#FC723B" d="M58.5 43.333h7v7h-7zM39.5 54.333h7v8h-7z"/><path opacity=".7" fill="#FFF" d="M43.5 19.458l34.333-.165-8 7.04h-34"/></svg>