<svg xmlns="http://www.w3.org/2000/svg" width="114" height="114" viewBox="0 0 114 114"><path opacity=".4" fill="#FFF" d="M24.333 48.333h64v31h-64z"/><path fill="#FFF" d="M56.674 26.002L24.61 49h64.056"/><path fill="#FC723B" d="M65.662 34.422c0 4.63 3.787 8.42 8.42 8.42h19.632c4.63 0 8.42-3.79 8.42-8.42s-3.79-8.42-8.42-8.42H74.08c-4.63 0-8.418 3.79-8.418 8.42"/><g fill="#FFF"><path d="M77.135 38.08c-.472-.838-.98-1.664-1.53-2.48-.55-.817-1.135-1.588-1.754-2.313v4.794h-1.626v-7.316h1.343c.23.23.488.517.77.854s.57.7.86 1.083c.293.385.584.782.872 1.194.288.41.56.808.81 1.188v-4.32h1.638v7.318h-1.383zM80.207 38.08v-7.317h4.942v1.384h-3.297v1.436h2.926v1.352h-2.927V36.7h3.538v1.382h-5.184v-.002zM91.524 31.544c.084.288.177.614.278.977.103.363.21.738.326 1.126.116.388.233.774.354 1.16.118.39.234.747.348 1.08.092-.36.186-.75.28-1.174.096-.423.187-.858.272-1.31.085-.45.168-.898.25-1.346.08-.447.157-.88.228-1.294h1.71c-.246 1.225-.53 2.468-.853 3.728-.32 1.26-.67 2.457-1.047 3.59h-1.507c-.246-.676-.484-1.385-.717-2.127-.23-.743-.46-1.487-.686-2.234-.226.746-.45 1.49-.677 2.233-.226.742-.462 1.45-.708 2.127H87.87c-.376-1.133-.724-2.33-1.046-3.59-.32-1.26-.606-2.503-.854-3.728h1.784c.07.415.15.847.234 1.294.084.447.173.896.265 1.346.092.45.187.887.28 1.31s.194.813.293 1.173c.127-.346.25-.71.37-1.1.12-.387.235-.773.35-1.16.112-.388.217-.762.312-1.12s.182-.68.26-.96h1.406z"/></g><path opacity=".7" fill="#FFF" d="M24.73 49.057V79.93l31.857-13.847"/><path fill="#FFF" d="M56.587 60.874L24.53 79.93h64.114"/><path opacity=".7" fill="#FFF" d="M56.587 66.083L88.644 79.93V49.057"/></svg>