<svg xmlns="http://www.w3.org/2000/svg" width="114" height="114" viewBox="0 0 114 114"><path fill="#FFF" d="M35.728 67.753v3.218h-27v-3.217l9-5.78V59.72c-.555 0-1.07-.557-1.54-1.676-.474-1.117-.71-2.057-.71-2.822V50.72c0-1.86.66-3.448 1.98-4.768 1.32-1.32 2.91-1.982 4.77-1.982 1.86 0 3.45.662 4.77 1.982 1.32 1.32 1.98 2.908 1.98 4.768v4.502c0 .766-.236 1.705-.708 2.822-.474 1.12-.986 1.675-1.54 1.675v2.253l8.998 5.78z"/><path opacity=".6" fill="#FFF" d="M80.84 31.894c-14.415 0-26.1 11.686-26.1 26.1s11.685 26.1 26.1 26.1 26.1-11.686 26.1-26.1-11.687-26.1-26.1-26.1zm12.493 39.44h-27v-3.318l9-5.78V59.98c-1 0-.944-.556-1.418-1.674-.474-1.118-.582-2.058-.582-2.823V50.98c0-1.858 1.037-3.447 2.358-4.768 1.32-1.32 3.1-1.98 4.958-1.98 1.86 0 2.916.66 4.236 1.98 1.32 1.32 1.447 2.91 1.447 4.77v4.5c0 .767-.112 1.706-.583 2.824-.475 1.118-1.416 1.674-1.416 1.674v2.254l9 5.78.003 3.32z"/><path fill="#FC723B" d="M25.638 73.298c0 4.377 3.58 7.956 7.955 7.956h.445c4.375 0 7.956-3.58 7.956-7.956 0-4.375-3.58-7.955-7.956-7.955h-.445c-4.376 0-7.955 3.58-7.955 7.955"/><path fill="#FFF" d="M30.3 72.5H32.8v-2.77h2.035v2.77h2.498v1.87h-2.497v2.766h-2.035V74.37H30.3V72.5z"/></svg>