<?xml version="1.0" encoding="utf-8"?>
<!-- Generator: Adobe Illustrator 16.0.4, SVG Export Plug-In . SVG Version: 6.00 Build 0)  -->
<!DOCTYPE svg PUBLIC "-//W3C//DTD SVG 1.1//EN" "http://www.w3.org/Graphics/SVG/1.1/DTD/svg11.dtd">
<svg version="1.1" id="Layer_1" xmlns="http://www.w3.org/2000/svg" xmlns:xlink="http://www.w3.org/1999/xlink" x="0px" y="0px"
	 width="114px" height="114px" viewBox="0 0 114 114" enable-background="new 0 0 114 114" xml:space="preserve">
<g id="Layer_2" display="none">
	<rect x="-0.001" y="-0.667" display="inline" fill="#0032B4" width="114.001" height="114"/>
	<rect x="174.999" y="-0.667" display="inline" fill="#0032B4" width="114.001" height="114"/>
	<rect x="350.999" y="-0.667" display="inline" fill="#0032B4" width="114.001" height="114"/>
	<rect x="530.999" y="-0.667" display="inline" fill="#0032B4" width="114.001" height="114"/>
	<rect x="-56.667" y="212.333" display="inline" fill="#0032B4" width="228.001" height="228.002"/>
	<rect x="239.333" y="212.331" display="inline" fill="#0032B4" width="228.001" height="228.002"/>
	<rect x="540.333" y="212.333" display="inline" fill="#0032B4" width="228.001" height="228.002"/>
	<rect x="841.333" y="212.333" display="inline" fill="#0032B4" width="228.001" height="228.002"/>
</g>
<g id="_x30_3">
	<g>
		<g>
			<g>
				<polygon fill="#FFFFFF" points="53.601,31.138 39.422,47.859 77.472,68.669 33.161,59.691 19.535,82.171 93.852,74.109 				"/>
			</g>
			<polygon opacity="0.7" fill="#FFFFFF" enable-background="new    " points="39.422,47.859 77.359,68.631 40.438,57.771 			"/>
			<polygon opacity="0.4" fill="#FFFFFF" enable-background="new    " points="33.161,59.691 77.359,68.631 40.438,57.771 			"/>
		</g>
	</g>
</g>
</svg>
