<?xml version="1.0" encoding="utf-8"?>
<!-- Generator: Adobe Illustrator 16.0.4, SVG Export Plug-In . SVG Version: 6.00 Build 0)  -->
<!DOCTYPE svg PUBLIC "-//W3C//DTD SVG 1.1//EN" "http://www.w3.org/Graphics/SVG/1.1/DTD/svg11.dtd">
<svg version="1.1" id="Layer_1" xmlns="http://www.w3.org/2000/svg" xmlns:xlink="http://www.w3.org/1999/xlink" x="0px" y="0px"
	 width="114px" height="114px" viewBox="0 0 114 114" enable-background="new 0 0 114 114" xml:space="preserve">
<g id="Layer_2" display="none">
	<rect x="-0.001" y="-0.667" display="inline" fill="#0032B4" width="114.001" height="114"/>
	<rect x="174.999" y="-0.667" display="inline" fill="#0032B4" width="114.001" height="114"/>
	<rect x="350.999" y="-0.667" display="inline" fill="#0032B4" width="114.001" height="114"/>
	<rect x="530.999" y="-0.667" display="inline" fill="#0032B4" width="114.001" height="114"/>
	<rect x="-56.667" y="212.333" display="inline" fill="#0032B4" width="228.001" height="228.002"/>
	<rect x="239.333" y="212.331" display="inline" fill="#0032B4" width="228.001" height="228.002"/>
	<rect x="540.333" y="212.333" display="inline" fill="#0032B4" width="228.001" height="228.002"/>
	<rect x="841.333" y="212.333" display="inline" fill="#0032B4" width="228.001" height="228.002"/>
</g>
<g id="_x30_2">
	<g>
		<path fill="#FFFFFF" d="M35.5,26.333v61h4v-7h7v7h23v-61H35.5z M46.5,73.333h-7v-8h7V73.333z M46.5,50.333h-7v-7h7V50.333z
			 M46.5,39.333h-7v-8h7V39.333z M55.5,73.333h-7v-8h7V73.333z M55.5,62.333h-7v-8h7V62.333z M55.5,50.333h-7v-7h7V50.333z
			 M55.5,39.333h-7v-8h7V39.333z M65.5,73.333h-7v-8h7V73.333z M65.5,62.333h-7v-8h7V62.333z M65.5,39.333h-7v-8h7V39.333z"/>
		<polygon opacity="0.4" fill="#FFFFFF" enable-background="new    " points="77.5,81.716 69.5,87.999 69.5,26.999 77.5,19.793 		
			"/>
		<rect x="58.5" y="43.333" fill="#FC723B" width="7" height="7"/>
		<rect x="39.5" y="54.333" fill="#FC723B" width="7" height="8"/>
		<polygon opacity="0.7" fill="#FFFFFF" enable-background="new    " points="43.5,19.458 77.833,19.293 69.833,26.333 
			35.833,26.333 		"/>
	</g>
</g>
</svg>
