<?xml version="1.0" encoding="UTF-8" standalone="no"?>
<!-- Created with Inkscape (http://www.inkscape.org/) -->

<svg
   xmlns:dc="http://purl.org/dc/elements/1.1/"
   xmlns:cc="http://creativecommons.org/ns#"
   xmlns:rdf="http://www.w3.org/1999/02/22-rdf-syntax-ns#"
   xmlns:svg="http://www.w3.org/2000/svg"
   xmlns="http://www.w3.org/2000/svg"
   xmlns:sodipodi="http://sodipodi.sourceforge.net/DTD/sodipodi-0.dtd"
   xmlns:inkscape="http://www.inkscape.org/namespaces/inkscape"
   id="svg2"
   version="1.1"
   inkscape:version="0.91 r13725"
   xml:space="preserve"
   width="285.00125"
   height="285.0025"
   viewBox="0 0 285.00125 285.0025"
   sodipodi:docname="ChV_icons.svg"><metadata
     id="metadata8"><rdf:RDF><cc:Work
         rdf:about=""><dc:format>image/svg+xml</dc:format><dc:type
           rdf:resource="http://purl.org/dc/dcmitype/StillImage" /><dc:title></dc:title></cc:Work></rdf:RDF></metadata><defs
     id="defs6"><clipPath
       clipPathUnits="userSpaceOnUse"
       id="clipPath18"><path
         d="m 0,228.002 228.001,0 L 228.001,0 0,0 0,228.002 Z"
         id="path20"
         inkscape:connector-curvature="0" /></clipPath><clipPath
       clipPathUnits="userSpaceOnUse"
       id="clipPath30"><path
         d="m 107.481,163.543 104.399,0 0,-104.3985 -104.399,0 0,104.3985 z"
         id="path32"
         inkscape:connector-curvature="0" /></clipPath></defs><sodipodi:namedview
     pagecolor="#ffffff"
     bordercolor="#666666"
     borderopacity="1"
     objecttolerance="10"
     gridtolerance="10"
     guidetolerance="10"
     inkscape:pageopacity="0"
     inkscape:pageshadow="2"
     inkscape:window-width="640"
     inkscape:window-height="480"
     id="namedview4"
     showgrid="false"
     inkscape:zoom="0.8280629"
     inkscape:cx="142.50063"
     inkscape:cy="142.50125"
     inkscape:window-x="254"
     inkscape:window-y="340"
     inkscape:window-maximized="0"
     inkscape:current-layer="g10" /><g
     id="g10"
     inkscape:groupmode="layer"
     inkscape:label="ChV_icons"
     transform="matrix(1.25,0,0,-1.25,0,285.0025)"><g
       id="g14"><g
         id="g16"
         clip-path="url(#clipPath18)"><g
           id="g22"
           transform="translate(69.459,91.8242)"><path
             d="m 0,0 0,-6.434 -54,0 0,6.434 18,11.563 0,4.505 c -1.109,0 -2.14,1.112 -3.084,3.35 -0.945,2.234 -1.416,4.113 -1.416,5.644 l 0,9.004 c 0,3.719 1.318,6.897 3.962,9.536 2.64,2.64 5.816,3.964 9.538,3.964 3.718,0 6.897,-1.324 9.537,-3.964 2.641,-2.639 3.963,-5.817 3.963,-9.536 l 0,-9.004 c 0,-1.531 -0.473,-3.41 -1.417,-5.644 -0.946,-2.238 -1.973,-3.35 -3.08,-3.35 l 0,-4.505 L 0,0 Z"
             style="fill:#ffffff;fill-opacity:1;fill-rule:nonzero;stroke:none"
             id="path24"
             inkscape:connector-curvature="0" /></g><g
           id="g26"><g
             id="g28" /><g
             id="g34"><g
               clip-path="url(#clipPath30)"
               id="g36"
               style="opacity:0.60000598"><g
                 transform="translate(185.001,84)"
                 id="g38"><path
                   d="m 0,0 -54,0 0,7.301 18,11.562 0,4.508 c -2,0 -1.891,1.109 -2.836,3.348 -0.945,2.234 -1.164,4.113 -1.164,5.644 l 0,9.004 c 0,3.719 1.908,6.897 4.553,9.537 2.64,2.639 6.112,3.963 9.831,3.963 3.719,0 5.956,-1.324 8.596,-3.963 2.639,-2.64 3.02,-5.818 3.02,-9.537 l 0,-9.004 c 0,-1.531 -0.227,-3.41 -1.168,-5.644 C -16.117,24.48 -18,23.371 -18,23.371 L -18,18.863 0,7.301 0,0 Z m -25.32,79.543 c -28.828,0 -52.2,-23.371 -52.2,-52.199 0,-28.828 23.372,-52.199 52.2,-52.199 28.828,0 52.199,23.371 52.199,52.199 0,28.828 -23.371,52.199 -52.199,52.199"
                   style="fill:#ffffff;fill-opacity:1;fill-rule:nonzero;stroke:none"
                   id="path40"
                   inkscape:connector-curvature="0" /></g></g></g></g><g
           id="g42"
           transform="translate(49.2793,80.7344)"><path
             d="m 0,0 c 0,-8.754 7.157,-15.912 15.91,-15.912 l 0.891,0 c 8.75,0 15.911,7.158 15.911,15.912 0,8.75 -7.161,15.91 -15.911,15.91 l -0.891,0 C 7.157,15.91 0,8.75 0,0"
             style="fill:#fc723b;fill-opacity:1;fill-rule:nonzero;stroke:none"
             id="path44"
             inkscape:connector-curvature="0" /></g><g
           id="g46"
           transform="translate(58.6045,82.332)"><path
             d="m 0,0 4.995,0 0,5.535 4.069,0 0,-5.535 4.997,0 0,-3.74 -4.997,0 0,-5.533 -4.069,0 0,5.533 L 0,-3.74 0,0 Z"
             style="fill:#ffffff;fill-opacity:1;fill-rule:nonzero;stroke:none"
             id="path48"
             inkscape:connector-curvature="0" /></g></g></g></g></svg>