<?xml version="1.0" encoding="utf-8"?>
<!-- Generator: Adobe Illustrator 16.0.4, SVG Export Plug-In . SVG Version: 6.00 Build 0)  -->
<!DOCTYPE svg PUBLIC "-//W3C//DTD SVG 1.1//EN" "http://www.w3.org/Graphics/SVG/1.1/DTD/svg11.dtd">
<svg version="1.1" id="Layer_1" xmlns="http://www.w3.org/2000/svg" xmlns:xlink="http://www.w3.org/1999/xlink" x="0px" y="0px"
	 width="114px" height="114px" viewBox="0 0 114 114" enable-background="new 0 0 114 114" xml:space="preserve">
<g id="Layer_2" display="none">
	<rect x="-0.001" y="-0.667" display="inline" fill="#0032B4" width="114.001" height="114"/>
	<rect x="174.999" y="-0.667" display="inline" fill="#0032B4" width="114.001" height="114"/>
	<rect x="350.999" y="-0.667" display="inline" fill="#0032B4" width="114.001" height="114"/>
	<rect x="530.999" y="-0.667" display="inline" fill="#0032B4" width="114.001" height="114"/>
	<rect x="-56.667" y="212.333" display="inline" fill="#0032B4" width="228.001" height="228.002"/>
	<rect x="239.333" y="212.331" display="inline" fill="#0032B4" width="228.001" height="228.002"/>
	<rect x="540.333" y="212.333" display="inline" fill="#0032B4" width="228.001" height="228.002"/>
	<rect x="841.333" y="212.333" display="inline" fill="#0032B4" width="228.001" height="228.002"/>
</g>
<g id="_x30_4">
	<g>
		<rect x="24.333" y="48.333" opacity="0.4" fill="#FFFFFF" enable-background="new    " width="64" height="31"/>
		<polygon fill="#FFFFFF" points="56.674,26.002 24.609,48.999 88.666,48.999 		"/>
		<path fill="#FC723B" d="M65.662,34.422c0,4.631,3.787,8.42,8.419,8.42h19.633c4.631,0,8.419-3.789,8.419-8.42
			c0-4.631-3.788-8.42-8.419-8.42H74.081C69.449,26.002,65.662,29.791,65.662,34.422"/>
		<g>
			<path fill="#FFFFFF" d="M77.135,38.08c-0.472-0.838-0.981-1.664-1.531-2.48c-0.55-0.817-1.134-1.588-1.753-2.313v4.794h-1.627
				v-7.317h1.343c0.231,0.231,0.488,0.517,0.771,0.854s0.568,0.699,0.86,1.083c0.292,0.384,0.583,0.781,0.871,1.193
				c0.289,0.411,0.561,0.808,0.812,1.188v-4.319h1.637v7.317H77.135z"/>
			<path fill="#FFFFFF" d="M80.207,38.08v-7.317h4.942v1.384h-3.296v1.436h2.926v1.352h-2.926v1.764h3.538v1.383h-5.185V38.08z"/>
			<path fill="#FFFFFF" d="M91.524,31.544c0.084,0.288,0.177,0.614,0.278,0.977c0.103,0.362,0.211,0.737,0.326,1.125
				c0.116,0.388,0.233,0.774,0.354,1.161c0.118,0.388,0.234,0.746,0.348,1.078c0.092-0.359,0.186-0.75,0.281-1.173
				c0.095-0.423,0.186-0.858,0.271-1.31c0.085-0.45,0.168-0.898,0.249-1.346c0.082-0.447,0.158-0.879,0.229-1.294h1.711
				c-0.247,1.225-0.532,2.468-0.854,3.728c-0.321,1.26-0.671,2.457-1.047,3.59h-1.507c-0.246-0.676-0.484-1.385-0.717-2.127
				c-0.231-0.743-0.46-1.487-0.686-2.234c-0.226,0.747-0.451,1.491-0.677,2.234c-0.226,0.742-0.462,1.451-0.708,2.127h-1.506
				c-0.375-1.133-0.723-2.33-1.045-3.59c-0.321-1.26-0.606-2.503-0.854-3.728h1.784c0.071,0.415,0.149,0.847,0.234,1.294
				c0.084,0.447,0.173,0.896,0.265,1.346c0.092,0.451,0.187,0.887,0.281,1.31s0.193,0.813,0.292,1.173
				c0.127-0.346,0.25-0.711,0.37-1.1c0.12-0.387,0.235-0.773,0.35-1.161c0.112-0.387,0.217-0.761,0.312-1.119
				s0.182-0.679,0.26-0.961H91.524z"/>
		</g>
		<polygon opacity="0.7" fill="#FFFFFF" enable-background="new    " points="24.729,49.057 24.729,79.93 56.587,66.083 		"/>
		<polygon fill="#FFFFFF" points="56.587,60.874 24.53,79.93 88.644,79.93 		"/>
		<polygon opacity="0.7" fill="#FFFFFF" enable-background="new    " points="56.587,66.083 88.644,79.93 88.644,49.057 		"/>
	</g>
</g>
</svg>
